<?xml version="1.0" encoding="UTF-8" standalone="no"?>
<!DOCTYPE svg PUBLIC "-//W3C//DTD SVG 1.1//EN" "http://www.w3.org/Graphics/SVG/1.1/DTD/svg11.dtd">
<svg width="100%" height="100%" viewBox="0 0 100 100" version="1.1" xmlns="http://www.w3.org/2000/svg" xmlns:xlink="http://www.w3.org/1999/xlink" xml:space="preserve" xmlns:serif="http://www.serif.com/" style="fill-rule:evenodd;clip-rule:evenodd;stroke-linejoin:round;stroke-miterlimit:2;">
    <g>
        <circle cx="51.83" cy="29.34" r="7.23"/>
        <path d="M77.97,46.57C77.35,45.49 75.98,45.09 74.88,45.67L66.03,50.33L57.98,40.66C56.93,39.39 55.35,38.58 53.58,38.58L50.3,38.58C49.09,38.58 47.97,38.96 47.04,39.61L33.4,48.7C32.48,49.39 32.11,50.65 32.61,51.75L37.73,63.2C38.27,64.4 39.68,64.94 40.88,64.4C42.04,63.88 42.59,62.53 42.12,61.35L38.47,52.24L44.6,49.25L44.6,63.3L38.53,73.98L25.74,69.98C24.15,69.49 22.45,70.34 21.89,71.91C21.31,73.53 22.16,75.31 23.78,75.89L39.39,81.45C40.71,81.92 42.12,81.44 42.91,80.38L52.37,68.3L62.04,77.41L62.74,92.03C62.83,93.69 64.21,94.99 65.88,94.98C67.6,94.96 68.98,93.56 68.97,91.84L68.83,75.27C68.82,74.52 68.54,73.84 68.1,73.31L59.28,62.17L59.28,51.77L63.75,55.72C64.48,56.31 65.52,56.43 66.38,55.93L77.11,49.73C78.23,49.11 78.61,47.68 77.97,46.57Z" style="fill-rule:nonzero;"/>
        <circle cx="51.52" cy="15.35" r="1"/>
        <circle cx="51.52" cy="10.68" r="1"/>
        <circle cx="51.52" cy="6" r="1"/>
        <circle cx="41.53" cy="18.31" r="1"/>
        <circle cx="38.5" cy="14.76" r="1"/>
        <circle cx="35.46" cy="11.2" r="1"/>
        <circle cx="37.97" cy="26.1" r="1"/>
        <circle cx="33.46" cy="24.86" r="1"/>
        <circle cx="28.95" cy="23.61" r="1"/>
        <circle cx="61.16" cy="18.56" r="1"/>
        <circle cx="63.96" cy="14.82" r="1"/>
        <circle cx="66.76" cy="11.07" r="1"/>
        <circle cx="65.96" cy="25.96" r="1"/>
        <circle cx="70.5" cy="24.86" r="1"/>
        <circle cx="75.05" cy="23.76" r="1"/>
    </g>
</svg>
